<?xml version="1.0" encoding="UTF-8" standalone="no"?>
<svg
   class="ionicon"
   viewBox="0 0 512 512"
   version="1.1"
   id="svg6"
   sodipodi:docname="transliterate.svg"
   xml:space="preserve"
   inkscape:version="1.2.2 (b0a8486541, 2022-12-01)"
   xmlns:inkscape="http://www.inkscape.org/namespaces/inkscape"
   xmlns:sodipodi="http://sodipodi.sourceforge.net/DTD/sodipodi-0.dtd"
   xmlns="http://www.w3.org/2000/svg"
   xmlns:svg="http://www.w3.org/2000/svg"><defs
     id="defs10" /><sodipodi:namedview
     id="namedview8"
     pagecolor="#ffffff"
     bordercolor="#666666"
     borderopacity="1.0"
     inkscape:showpageshadow="2"
     inkscape:pageopacity="0.0"
     inkscape:pagecheckerboard="0"
     inkscape:deskcolor="#d1d1d1"
     showgrid="false"
     inkscape:zoom="1.0405384"
     inkscape:cx="255.15637"
     inkscape:cy="123.49376"
     inkscape:window-width="1920"
     inkscape:window-height="1093"
     inkscape:window-x="0"
     inkscape:window-y="32"
     inkscape:window-maximized="1"
     inkscape:current-layer="svg6" /><path
     fill="none"
     stroke="currentColor"
     stroke-linecap="round"
     stroke-linejoin="round"
     stroke-width="32"
     d="m 272,448 96,-224 96,224 M 301.5,384 h 133"
     id="path2"
     sodipodi:nodetypes="ccccc" /><path
     style="fill:#000000;stroke-width:0.519196"
     d="m 165.23724,351.51642 c -1.07201,-0.27034 -3.05793,-1.06618 -4.41317,-1.76855 -1.35523,-0.70236 -26.29518,-15.74386 -55.4221,-33.42555 -35.999215,-21.85357 -53.91483,-33.02018 -55.945863,-34.87052 -2.230223,-2.03177 -3.546754,-3.8499 -5.191974,-7.1701 l -2.204114,-4.44809 v -69.87106 -69.87107 l 1.914691,-4.00965 c 3.670875,-7.68738 1.826732,-6.423 62.72526,-43.005712 30.12637,-18.097389 55.94341,-33.313813 57.3712,-33.814255 3.49907,-1.22644 11.01278,-1.231754 14.5375,-0.01022 1.42779,0.494796 27.36165,15.800393 57.6308,34.012424 60.85065,36.612003 58.65005,35.102653 62.41708,42.810433 l 1.96327,4.01705 v 69.83186 69.83191 l -1.87126,3.91821 c -3.64622,7.63477 -1.67894,6.27651 -61.68496,42.58877 -29.81587,18.04289 -55.50266,33.39674 -57.08174,34.11966 -2.30624,1.05584 -3.84729,1.34507 -7.83329,1.4702 -2.72922,0.0857 -5.83932,-0.0654 -6.91133,-0.33574 z m -3.64068,-122.50039 -0.12134,-24.125 -11.42233,-6.94645 c -52.80702,-32.11447 -91.646677,-54.77813 -92.468004,-53.9568 -0.199101,0.1991 -1.631526,83.70121 -1.841268,107.33606 -0.103083,11.61305 -0.0958,11.69723 1.227602,14.2779 0.732192,1.42779 1.765393,2.9843 2.295981,3.4589 0.530588,0.4746 23.62764,14.5455 51.326759,31.26865 l 50.36206,30.40574 0.38097,-38.79699 c 0.20954,-21.33836 0.32635,-49.65326 0.2596,-62.92201 z m -33.59163,72.56479 c -3.62458,-1.39145 -7.88599,-5.58451 -9.77723,-9.62039 -1.21731,-2.59772 -1.40307,-3.6489 -1.4009,-7.92721 0.003,-4.33788 0.16869,-5.24525 1.38142,-7.52835 2.50701,-4.71971 6.54251,-7.52552 11.96691,-8.32042 3.18658,-0.46696 8.60158,1.16908 11.86905,3.586 4.9373,3.65207 8.22223,11.01109 7.53296,16.87564 -0.65059,5.53564 -3.96579,10.4267 -8.68981,12.82054 -3.26803,1.65604 -8.73971,1.70454 -12.8824,0.1142 z M 77.219336,267.98547 c -7.423781,-2.76098 -12.057526,-9.05299 -12.461617,-16.92122 -0.172277,-3.35436 0.0026,-4.7251 0.907062,-7.12389 4.10303,-10.87769 18.268089,-13.06076 26.643972,-4.10626 2.881521,3.08057 4.212831,5.62004 5.035256,9.60469 1.035296,5.01605 -0.446512,10.71507 -3.8244,14.70864 -3.375729,3.99103 -11.037942,5.79515 -16.300273,3.83804 z m 51.919634,-25.95982 c -7.42377,-2.76098 -12.05752,-9.05299 -12.46162,-16.92122 -0.17226,-3.35436 0.003,-4.72511 0.90707,-7.12389 4.10303,-10.8777 18.26809,-13.06076 26.64398,-4.10626 2.8815,3.08057 4.21283,5.62004 5.03524,9.60469 1.03531,5.01605 -0.4465,10.71507 -3.82439,14.70865 -3.37573,3.99102 -11.03794,5.79514 -16.30028,3.83803 z M 77.008828,207.74971 c -4.034295,-1.57746 -6.137281,-3.15588 -8.523673,-6.39757 -3.73823,-5.07802 -4.791562,-11.01625 -3.015145,-16.99809 1.180238,-3.97427 5.549097,-8.26594 9.746983,-9.57478 9.299488,-2.89944 19.38686,3.50149 21.96179,13.93586 0.7121,2.88561 0.762683,4.04107 0.288568,6.59055 -1.095728,5.89198 -4.291887,10.25003 -9.127722,12.44592 -2.812071,1.27692 -8.062535,1.27604 -11.330801,-0.003 z m 153.519482,91.17988 c 26.5569,-16.849 49.22657,-31.38909 50.37704,-32.31129 1.15049,-0.92221 2.78597,-2.93003 3.63439,-4.46182 l 1.54258,-2.78508 0.13857,-57.9879 0.13855,-57.98788 -10.26289,5.91442 c -5.64459,3.25294 -29.30442,16.88184 -52.57739,30.28645 l -42.31451,24.37203 -0.13188,63.16852 c -0.1055,50.52297 -0.001,63.09429 0.51921,62.79781 0.35808,-0.20388 22.37944,-14.15624 48.93633,-31.00526 z M 199.317,298.80051 c -6.67269,-2.46341 -10.88265,-10.4824 -9.50774,-18.11008 1.15544,-6.41018 5.05356,-11.54719 10.80294,-14.23631 2.3442,-1.09643 3.68348,-1.36332 6.81187,-1.35742 4.73976,0.009 7.7761,1.23885 10.8319,4.38764 3.08962,3.18364 4.37876,7.0102 4.11432,12.2125 -0.36758,7.23152 -3.6803,12.5562 -9.86138,15.85069 -2.69793,1.43798 -3.89635,1.75394 -7.14846,1.88464 -2.56761,0.10321 -4.63956,-0.11343 -6.04345,-0.63166 z m 29.41802,-44.9041 c -4.62889,-0.95638 -9.35821,-5.5201 -10.93827,-10.55525 -0.97378,-3.10316 -0.41455,-9.90228 1.07293,-13.04477 1.81891,-3.84268 6.3468,-8.1559 9.99454,-9.52069 8.54249,-3.19616 17.70703,0.76911 20.38048,8.81814 1.31008,3.94431 0.86666,10.30258 -0.98202,14.08115 -3.61263,7.38397 -12.00348,11.776 -19.52766,10.22142 z m 25.93592,-47.16337 c -2.7844,-0.90668 -5.6239,-2.67919 -7.23929,-4.51903 -7.44255,-8.47658 -4.09776,-22.57216 6.60671,-27.84195 3.01902,-1.48625 3.97022,-1.70243 7.37121,-1.67516 4.65759,0.0373 7.76704,1.25458 10.56545,4.13601 3.28021,3.37753 4.24288,6.02647 4.2404,11.66817 -0.003,4.31269 -0.17947,5.29357 -1.41325,7.8073 -3.23212,6.58517 -8.8431,10.48643 -15.42401,10.72416 -1.87508,0.0677 -3.99333,-0.0671 -4.70722,-0.2995 z m -32.71901,-51.81237 c 43.21805,-25.00606 50.72445,-29.51843 49.96611,-30.03646 -1.55087,-1.05943 -100.30851,-58.911431 -100.79468,-59.04531 -0.50787,-0.139845 -106.470895,58.37956 -106.472965,58.80103 -0.001,0.20477 105.784225,59.59664 106.306675,59.68463 0.075,0.0128 23.02267,-13.21913 50.99486,-29.40389 z m -55.28478,-15.92054 c -3.35463,-1.10902 -5.19007,-2.23917 -7.67937,-4.72846 -3.39494,-3.39496 -4.67324,-6.37535 -4.94358,-11.5262 -0.20575,-3.92014 -0.0943,-4.55164 1.34727,-7.63216 1.88793,-4.03441 4.77816,-6.97142 8.80944,-8.95201 2.66553,-1.30958 3.54179,-1.4678 8.1774,-1.47658 4.62185,-0.009 5.51469,0.14736 8.131,1.42173 3.69208,1.79835 6.73412,4.72488 8.58762,8.26151 1.27515,2.43313 1.43874,3.3018 1.44557,7.67598 0.009,5.82891 -1.01465,8.4687 -4.72189,12.17594 -3.5816,3.5816 -7.26969,5.13501 -12.62154,5.31608 -2.70785,0.0916 -5.26964,-0.11853 -6.53192,-0.53583 z"
     id="path401" /></svg>
